<mxfile host="app.diagrams.net" modified="2021-10-20T09:23:33.538Z" agent="5.0 (X11; Linux x86_64) AppleWebKit/537.36 (KHTML, like Gecko) Chrome/94.0.4606.81 Safari/537.36" etag="InZJ1pxAYroEIYUR1Aw6" version="15.5.6" type="github">
  <diagram id="yCWR4UtT53s16_KLTSQR" name="Page-1">
    <mxGraphModel dx="1350" dy="744" grid="1" gridSize="10" guides="1" tooltips="1" connect="1" arrows="1" fold="1" page="1" pageScale="1" pageWidth="827" pageHeight="1169" math="0" shadow="0">
      <root>
        <mxCell id="0" />
        <mxCell id="1" parent="0" />
        <mxCell id="8fOH-3grJ2XLq-v2R_Kp-1" value="" style="rounded=0;whiteSpace=wrap;html=1;" vertex="1" parent="1">
          <mxGeometry x="150" y="200" width="620" height="390" as="geometry" />
        </mxCell>
        <mxCell id="8fOH-3grJ2XLq-v2R_Kp-2" value="host&amp;nbsp;" style="rounded=0;whiteSpace=wrap;html=1;fillColor=#fff2cc;strokeColor=#d6b656;" vertex="1" parent="1">
          <mxGeometry x="670" y="170" width="100" height="30" as="geometry" />
        </mxCell>
        <mxCell id="8fOH-3grJ2XLq-v2R_Kp-3" value="&lt;font color=&quot;#b8bfc6&quot; face=&quot;helvetica neue, helvetica, arial, segoe ui emoji, sans-serif&quot;&gt;&lt;span style=&quot;font-size: 16px&quot;&gt;docker0虚拟网卡&lt;/span&gt;&lt;/font&gt;" style="rounded=0;whiteSpace=wrap;html=1;" vertex="1" parent="1">
          <mxGeometry x="470" y="310" width="120" height="60" as="geometry" />
        </mxCell>
        <mxCell id="8fOH-3grJ2XLq-v2R_Kp-5" style="edgeStyle=orthogonalEdgeStyle;rounded=0;orthogonalLoop=1;jettySize=auto;html=1;" edge="1" parent="1" source="8fOH-3grJ2XLq-v2R_Kp-4" target="8fOH-3grJ2XLq-v2R_Kp-3">
          <mxGeometry relative="1" as="geometry" />
        </mxCell>
        <mxCell id="8fOH-3grJ2XLq-v2R_Kp-4" value="container 1" style="ellipse;whiteSpace=wrap;html=1;aspect=fixed;" vertex="1" parent="1">
          <mxGeometry x="370" y="440" width="80" height="80" as="geometry" />
        </mxCell>
        <mxCell id="8fOH-3grJ2XLq-v2R_Kp-7" style="edgeStyle=orthogonalEdgeStyle;rounded=0;orthogonalLoop=1;jettySize=auto;html=1;" edge="1" parent="1" source="8fOH-3grJ2XLq-v2R_Kp-6">
          <mxGeometry relative="1" as="geometry">
            <mxPoint x="530" y="380" as="targetPoint" />
          </mxGeometry>
        </mxCell>
        <mxCell id="8fOH-3grJ2XLq-v2R_Kp-6" value="container 2" style="ellipse;whiteSpace=wrap;html=1;aspect=fixed;" vertex="1" parent="1">
          <mxGeometry x="580" y="440" width="80" height="80" as="geometry" />
        </mxCell>
      </root>
    </mxGraphModel>
  </diagram>
</mxfile>
